<svg xmlns="http://www.w3.org/2000/svg" width="64" height="64" viewBox="0 0 64 64">
  <defs>
    <linearGradient id="g" x1="0" y1="0" x2="1" y2="1">
      <stop offset="0%" stop-color="#0ea5e9"/>
      <stop offset="100%" stop-color="#2563eb"/>
    </linearGradient>
  </defs>
  <rect x="4" y="4" width="56" height="56" rx="12" fill="url(#g)"/>
  <path d="M32 16c-8 0-14 6-14 14 0 6.2 3.8 11.5 9.2 13.5.7.1 1-.3 1-.8v-3.1c-3.8.8-4.6-1.6-4.6-1.6-.6-1.6-1.6-2-1.6-2-1.3-.9.1-.9.1-.9 1.5.1 2.3 1.6 2.3 1.6 1.3 2.3 3.5 1.6 4.4 1.2.1-1 .5-1.6.9-2-3-.3-6.2-1.5-6.2-6.7 0-1.5.5-2.7 1.5-3.7-.1-.4-.7-1.9.1-3.9 0 0 1.2-.4 4 .9 1.1-.3 2.4-.4 3.6-.4s2.5.1 3.6.4c2.8-1.3 4-.9 4-.9.8 2 .2 3.5.1 3.9 1 1 1.5 2.2 1.5 3.7 0 5.2-3.2 6.4-6.2 6.7.5.4 1 1.2 1 2.5v3.7c0 .5.3 1 .9.8C42.2 41.5 46 36.2 46 30c0-8-6-14-14-14z" fill="#e2e8f0"/>
</svg>
