<svg xmlns="http://www.w3.org/2000/svg" width="64" height="64" viewBox="0 0 64 64">
  <defs>
    <linearGradient id="g" x1="0" y1="0" x2="1" y2="1">
      <stop offset="0%" stop-color="#fde047"/>
      <stop offset="100%" stop-color="#facc15"/>
    </linearGradient>
  </defs>
  <rect x="4" y="4" width="56" height="56" rx="12" fill="url(#g)"/>
  <path d="M24 18h6v20c0 4-2.6 8-8.4 8-2.6 0-5.2-.8-7.2-2l2.6-4.6c1.3.8 2.6 1.2 3.8 1.2 2 0 3.2-1 3.2-3.4V18zm16 0h6v11.2c0 8.2-4.2 12.8-11.8 12.8-4.6 0-8.4-2.2-10.4-5.8l5-2.8c1.1 2.2 2.7 3.6 5.4 3.6 3.2 0 5-1.8 5-7.4V18z" fill="#0b1220"/>
</svg>
