<svg xmlns="http://www.w3.org/2000/svg" width="64" height="64" viewBox="0 0 64 64">
  <defs>
    <linearGradient id="g" x1="0" y1="0" x2="1" y2="1">
      <stop offset="0%" stop-color="#38bdf8"/>
      <stop offset="100%" stop-color="#60a5fa"/>
    </linearGradient>
  </defs>
  <rect x="4" y="4" width="56" height="56" rx="12" fill="url(#g)"/>
  <path d="M44.8 23.6c-1.6-1.6-3.9-2.4-7-2.4H26.2c-3.1 0-5.4.8-7 2.4-1.6 1.6-2.4 3.9-2.4 7s.8 5.4 2.4 7c1.6 1.6 3.9 2.4 7 2.4h3.2v-6h-3.2c-1.5 0-2.6-.4-3.4-1.2-.8-.8-1.2-1.9-1.2-3.4s.4-2.6 1.2-3.4c.8-.8 1.9-1.2 3.4-1.2h11.6c1.5 0 2.6.4 3.4 1.2.8.8 1.2 1.9 1.2 3.4s-.4 2.6-1.2 3.4c-.8.8-1.9 1.2-3.4 1.2H34v6h3.8c3.1 0 5.4-.8 7-2.4 1.6-1.6 2.4-3.9 2.4-7s-.8-5.4-2.4-7z" fill="#0b1220"/>
</svg>
