<svg xmlns="http://www.w3.org/2000/svg" width="1200" height="800" viewBox="0 0 1200 800">
  <defs>
    <linearGradient id="bg" x1="0" y1="0" x2="1" y2="1">
      <stop offset="0%" stop-color="#0b1427"/>
      <stop offset="100%" stop-color="#0a1121"/>
    </linearGradient>
    <linearGradient id="accent" x1="0" y1="0" x2="1" y2="0">
      <stop offset="0%" stop-color="#34d399"/>
      <stop offset="100%" stop-color="#22d3ee"/>
    </linearGradient>
  </defs>
  <rect width="1200" height="800" fill="url(#bg)"/>
  <rect x="140" y="120" width="920" height="560" rx="40" fill="#0c182f" stroke="#1f2d48" stroke-width="2"/>
  <rect x="220" y="200" width="760" height="70" rx="18" fill="#101d36" stroke="#24314a" stroke-width="2"/>
  <rect x="220" y="310" width="520" height="18" rx="9" fill="url(#accent)"/>
  <rect x="220" y="340" width="420" height="12" rx="6" fill="#2b3a57"/>
  <rect x="220" y="370" width="460" height="12" rx="6" fill="#2b3a57"/>
  <rect x="220" y="430" width="300" height="16" rx="8" fill="url(#accent)"/>
  <rect x="220" y="460" width="320" height="12" rx="6" fill="#2b3a57"/>
  <rect x="220" y="490" width="280" height="12" rx="6" fill="#2b3a57"/>
  <ellipse cx="900" cy="460" rx="90" ry="40" fill="#0b152a" stroke="#22324d" stroke-width="2"/>
  <rect x="810" y="460" width="180" height="70" rx="20" fill="#0f1c33" stroke="#22324d" stroke-width="2"/>
  <ellipse cx="900" cy="530" rx="90" ry="40" fill="#0b152a" stroke="#22324d" stroke-width="2"/>
  <path d="M860 470l20 18 40-36" fill="none" stroke="url(#accent)" stroke-width="6" stroke-linecap="round" stroke-linejoin="round"/>
  <rect x="220" y="540" width="240" height="40" rx="20" fill="url(#accent)"/>
</svg>
