<svg xmlns="http://www.w3.org/2000/svg" width="1200" height="760" viewBox="0 0 1200 760" role="img" aria-labelledby="title desc">
  <title id="title">Portfolio website preview</title>
  <desc id="desc">A polished dark portfolio website mockup with hero section, project cards, and skills panel.</desc>
  <defs>
    <linearGradient id="page" x1="0" y1="0" x2="1" y2="1">
      <stop offset="0" stop-color="#07111f"/>
      <stop offset="0.52" stop-color="#082734"/>
      <stop offset="1" stop-color="#06101c"/>
    </linearGradient>
    <linearGradient id="accent" x1="0" y1="0" x2="1" y2="1">
      <stop offset="0" stop-color="#34d399"/>
      <stop offset="1" stop-color="#22d3ee"/>
    </linearGradient>
    <filter id="shadow" x="-20%" y="-20%" width="140%" height="140%">
      <feDropShadow dx="0" dy="24" stdDeviation="28" flood-color="#020617" flood-opacity="0.42"/>
    </filter>
    <pattern id="grid" width="64" height="64" patternUnits="userSpaceOnUse">
      <path d="M64 0H0V64" fill="none" stroke="#1d4f5b" stroke-opacity="0.18"/>
    </pattern>
  </defs>

  <rect width="1200" height="760" fill="url(#page)"/>
  <rect width="1200" height="760" fill="url(#grid)" opacity="0.75"/>
  <circle cx="1038" cy="96" r="220" fill="#22d3ee" opacity="0.08"/>
  <circle cx="122" cy="638" r="240" fill="#34d399" opacity="0.1"/>

  <g filter="url(#shadow)">
    <rect x="92" y="74" width="1016" height="612" rx="34" fill="#0b1727" stroke="#244055" stroke-width="2"/>
  </g>

  <rect x="126" y="112" width="78" height="44" rx="15" fill="url(#accent)"/>
  <text x="148" y="140" fill="#06111c" font-size="18" font-weight="900" font-family="Inter, Segoe UI, Arial, sans-serif">JD</text>
  <g font-family="Inter, Segoe UI, Arial, sans-serif" font-size="15" font-weight="700" fill="#a9bbd2">
    <text x="770" y="140">About</text>
    <text x="846" y="140">Education</text>
    <text x="958" y="140">Portfolio</text>
  </g>
  <path d="M126 178h948" stroke="#1f3547" stroke-width="2"/>

  <g font-family="Inter, Segoe UI, Arial, sans-serif">
    <rect x="140" y="236" width="280" height="294" rx="30" fill="#101d2d" stroke="#254258"/>
    <rect x="174" y="270" width="212" height="212" rx="30" fill="#142b3c"/>
    <circle cx="280" cy="346" r="48" fill="#2dd4bf"/>
    <path d="M198 482c24-72 140-72 164 0z" fill="#1e8fa3"/>
    <rect x="168" y="506" width="150" height="34" rx="17" fill="#0b2f3a" stroke="#1d6573"/>
    <text x="188" y="528" fill="#67e8f9" font-size="13" font-weight="800">React + Frontend</text>

    <text x="474" y="280" fill="#34d399" font-size="15" font-weight="900" letter-spacing="3">FULL STACK DEVELOPER</text>
    <text x="474" y="348" fill="#f8fbff" font-size="48" font-weight="900">Jaydip Dumraliya</text>
    <text x="474" y="390" fill="#22d3ee" font-size="26" font-weight="800">Modern web products.</text>
    <text x="474" y="446" fill="#a9bbd2" font-size="18" font-weight="600">Responsive portfolio, clean UI, fast pages,</text>
    <text x="474" y="478" fill="#a9bbd2" font-size="18" font-weight="600">and polished project presentation.</text>

    <rect x="474" y="524" width="152" height="50" rx="16" fill="url(#accent)"/>
    <text x="506" y="555" fill="#06111c" font-size="16" font-weight="900">Portfolio</text>
    <rect x="646" y="524" width="148" height="50" rx="16" fill="#101d2d" stroke="#29475b"/>
    <text x="682" y="555" fill="#e6f0ff" font-size="16" font-weight="800">Contact</text>

    <rect x="850" y="236" width="190" height="130" rx="24" fill="#132536" stroke="#29475b"/>
    <text x="882" y="282" fill="#bdcada" font-size="15" font-weight="700">Projects</text>
    <text x="882" y="326" fill="#ffffff" font-size="38" font-weight="900">03</text>

    <rect x="850" y="394" width="190" height="136" rx="24" fill="#132536" stroke="#29475b"/>
    <text x="882" y="438" fill="#bdcada" font-size="15" font-weight="700">Core Stack</text>
    <rect x="882" y="468" width="70" height="28" rx="14" fill="#123e3a"/>
    <text x="899" y="487" fill="#34d399" font-size="12" font-weight="900">React</text>
    <rect x="960" y="468" width="56" height="28" rx="14" fill="#102b3f"/>
    <text x="976" y="487" fill="#67e8f9" font-size="12" font-weight="900">CSS</text>
  </g>
</svg>
