<svg xmlns="http://www.w3.org/2000/svg" width="1200" height="800" viewBox="0 0 1200 800">
  <defs>
    <linearGradient id="bg" x1="0" y1="0" x2="1" y2="1">
      <stop offset="0%" stop-color="#0b1324"/>
      <stop offset="100%" stop-color="#091428"/>
    </linearGradient>
    <linearGradient id="accent" x1="0" y1="0" x2="1" y2="0">
      <stop offset="0%" stop-color="#22d3ee"/>
      <stop offset="100%" stop-color="#34d399"/>
    </linearGradient>
  </defs>
  <rect width="1200" height="800" fill="url(#bg)"/>
  <rect x="120" y="140" width="960" height="520" rx="36" fill="#0c172c" stroke="#1e2b46" stroke-width="2"/>
  <rect x="180" y="200" width="340" height="380" rx="24" fill="#101d35" stroke="#24314a" stroke-width="2"/>
  <rect x="560" y="200" width="420" height="140" rx="24" fill="#101d35" stroke="#24314a" stroke-width="2"/>
  <rect x="560" y="380" width="420" height="200" rx="24" fill="#101d35" stroke="#24314a" stroke-width="2"/>
  <rect x="200" y="230" width="180" height="18" rx="9" fill="url(#accent)"/>
  <rect x="200" y="260" width="120" height="10" rx="5" fill="#2b3a57"/>
  <rect x="200" y="286" width="160" height="10" rx="5" fill="#2b3a57"/>
  <rect x="200" y="332" width="280" height="180" rx="16" fill="#0b152a" stroke="#22324d" stroke-width="2"/>
  <circle cx="760" cy="270" r="36" fill="#0b152a" stroke="#22324d" stroke-width="2"/>
  <rect x="820" y="248" width="120" height="12" rx="6" fill="#2b3a57"/>
  <rect x="820" y="272" width="80" height="12" rx="6" fill="#2b3a57"/>
  <rect x="590" y="410" width="220" height="16" rx="8" fill="url(#accent)"/>
  <rect x="590" y="442" width="260" height="10" rx="5" fill="#2b3a57"/>
  <rect x="590" y="464" width="240" height="10" rx="5" fill="#2b3a57"/>
  <rect x="590" y="520" width="160" height="36" rx="18" fill="url(#accent)"/>
</svg>
