<svg xmlns="http://www.w3.org/2000/svg" width="1200" height="800" viewBox="0 0 1200 800">
  <defs>
    <linearGradient id="bg" x1="0" y1="0" x2="1" y2="1">
      <stop offset="0%" stop-color="#0f1b2e"/>
      <stop offset="100%" stop-color="#0a1224"/>
    </linearGradient>
    <linearGradient id="accent" x1="0" y1="0" x2="1" y2="0">
      <stop offset="0%" stop-color="#34d399"/>
      <stop offset="100%" stop-color="#22d3ee"/>
    </linearGradient>
  </defs>
  <rect width="1200" height="800" fill="url(#bg)"/>
  <circle cx="160" cy="140" r="120" fill="#0b1427" stroke="#1f2a44" stroke-width="2"/>
  <circle cx="1040" cy="120" r="90" fill="#0b1427" stroke="#1f2a44" stroke-width="2"/>
  <circle cx="1020" cy="640" r="120" fill="#0b1427" stroke="#1f2a44" stroke-width="2"/>
  <rect x="150" y="170" width="900" height="520" rx="32" fill="#0b1529" stroke="#1c2a45" stroke-width="2"/>
  <rect x="190" y="210" width="260" height="420" rx="22" fill="#101c33" stroke="#24314a" stroke-width="2"/>
  <rect x="500" y="210" width="500" height="120" rx="22" fill="#101c33" stroke="#24314a" stroke-width="2"/>
  <rect x="500" y="360" width="500" height="120" rx="22" fill="#101c33" stroke="#24314a" stroke-width="2"/>
  <rect x="500" y="510" width="500" height="120" rx="22" fill="#101c33" stroke="#24314a" stroke-width="2"/>
  <rect x="210" y="250" width="180" height="18" rx="9" fill="url(#accent)"/>
  <rect x="210" y="286" width="140" height="12" rx="6" fill="#2b3a57"/>
  <rect x="210" y="320" width="160" height="12" rx="6" fill="#2b3a57"/>
  <rect x="210" y="354" width="120" height="12" rx="6" fill="#2b3a57"/>
  <rect x="210" y="390" width="160" height="12" rx="6" fill="#2b3a57"/>
  <rect x="210" y="424" width="120" height="12" rx="6" fill="#2b3a57"/>
  <rect x="210" y="500" width="180" height="36" rx="18" fill="url(#accent)"/>
  <rect x="530" y="246" width="320" height="16" rx="8" fill="url(#accent)"/>
  <rect x="530" y="272" width="240" height="12" rx="6" fill="#2b3a57"/>
  <rect x="530" y="396" width="320" height="16" rx="8" fill="url(#accent)"/>
  <rect x="530" y="422" width="240" height="12" rx="6" fill="#2b3a57"/>
  <rect x="530" y="546" width="320" height="16" rx="8" fill="url(#accent)"/>
  <rect x="530" y="572" width="240" height="12" rx="6" fill="#2b3a57"/>
</svg>
